<svg width="149" height="249" viewBox="0 0 149 249" fill="none" xmlns="http://www.w3.org/2000/svg">
<g id="21">
<path id="Union" fill-rule="evenodd" clip-rule="evenodd" d="M64.0492 59.4114L-11.6429 56.5394L-50.8928 117.388L-19.6986 189.177L58.0393 193.358L99.8942 128.47L64.0492 59.4114ZM76.0577 161.052L96.423 129.48L66.4402 127.867L45.8225 159.83L76.0577 161.052ZM74.5665 163.364L56.7932 190.917L26.8104 189.305L44.3314 162.142L74.5665 163.364ZM41.5827 162.031L24.0847 189.158L-16.801 186.959L0.352955 160.365L41.5827 162.031ZM-1.63185 159.07L-18.6993 185.53L-35.1592 147.65L-19.1267 122.795L-1.63185 159.07ZM-17.6211 120.461L-0.12629 156.736L20.8439 124.226L3.09785 88.673L2.88756 88.6661L-17.6211 120.461ZM-20.3332 120.293L-36.2944 145.037L-48.2136 117.607L-33.0018 94.0243L-20.3332 120.293ZM-31.4963 91.6902L-18.8276 117.959L1.62332 86.2538L1.89476 86.2626L-11.1446 60.1391L-31.4963 91.6902ZM1.84409 158.054L43.0739 159.719L63.7145 127.72L22.8288 125.521L1.84409 158.054ZM63.4693 125.334L22.958 123.155L5.79033 88.7604L45.1493 90.0385L63.4693 125.334ZM43.8974 87.6266L4.58723 86.3501L-9.05977 59.0091L29.8091 60.484L43.8974 87.6266ZM32.533 60.5873L46.6134 87.7147L76.5748 88.6877L62.5811 61.7274L32.533 60.5873ZM77.8267 91.0996L47.8653 90.1267L66.2162 125.481L96.5185 127.111L77.8267 91.0996Z" fill="url(#paint0_linear_901_269)"/>
</g>
<defs>
<linearGradient id="paint0_linear_901_269" x1="-13.6557" y1="56.1776" x2="56.5043" y2="197.265" gradientUnits="userSpaceOnUse">
<stop stop-color="white"/>
<stop offset="1" stop-color="#3C3C3C"/>
</linearGradient>
</defs>
</svg>
